<svg xmlns="http://www.w3.org/2000/svg" viewBox="0 0 1280 480" role="img" aria-labelledby="title desc">
<title id="title">MezaVPN</title>
<desc id="desc">Private, fast, effortless VPN for Android with Windows coming soon</desc>
<defs>
  <linearGradient id="panel" x1="0" y1="0" x2="1280" y2="480" gradientUnits="userSpaceOnUse">
    <stop stop-color="#0B1A2C"/><stop offset=".55" stop-color="#091727"/><stop offset="1" stop-color="#07111F"/>
  </linearGradient>
  <linearGradient id="brand" x1="70" y1="60" x2="258" y2="260" gradientUnits="userSpaceOnUse">
    <stop stop-color="#62E6B5"/><stop offset="1" stop-color="#63A8FF"/>
  </linearGradient>
  <radialGradient id="glowBlue"><stop stop-color="#63A8FF" stop-opacity=".34"/><stop offset="1" stop-color="#63A8FF" stop-opacity="0"/></radialGradient>
  <radialGradient id="glowMint"><stop stop-color="#62E6B5" stop-opacity=".18"/><stop offset="1" stop-color="#62E6B5" stop-opacity="0"/></radialGradient>
  <filter id="shadow"><feDropShadow dx="0" dy="18" stdDeviation="20" flood-color="#000" flood-opacity=".28"/></filter>
</defs>
<rect width="1280" height="480" rx="32" fill="url(#panel)"/>
<circle cx="1080" cy="40" r="360" fill="url(#glowBlue)"/><circle cx="40" cy="480" r="300" fill="url(#glowMint)"/>
<g filter="url(#shadow)"><rect x="72" y="62" width="118" height="118" rx="34" fill="url(#brand)"/><path d="M131 89c20 14 37 16 52 18v33c0 28-18 46-52 58-34-12-52-30-52-58v-33c15-2 32-4 52-18Z" fill="#07111F"/></g>
<text x="222" y="116" fill="#F7FAFC" font-family="Inter,Segoe UI,Arial,sans-serif" font-size="52" font-weight="750">MezaVPN</text>
<text x="222" y="159" fill="#9CB0C8" font-family="Inter,Segoe UI,Arial,sans-serif" font-size="23">Private. Fast. Effortless.</text>
<text x="72" y="266" fill="#F7FAFC" font-family="Inter,Segoe UI,Arial,sans-serif" font-size="31" font-weight="650">A calmer way to connect.</text>
<text x="72" y="308" fill="#9CB0C8" font-family="Inter,Segoe UI,Arial,sans-serif" font-size="19">Verified connections · Smart Failover · Real delay testing</text>
<g font-family="Inter,Segoe UI,Arial,sans-serif" font-size="16" font-weight="650">
  <rect x="72" y="356" width="184" height="50" rx="25" fill="#62E6B5" fill-opacity=".13" stroke="#62E6B5" stroke-opacity=".44"/>
  <circle cx="101" cy="381" r="7" fill="#62E6B5"/><text x="119" y="387" fill="#C6FAE7">Android · Available</text>
  <rect x="274" y="356" width="220" height="50" rx="25" fill="#63A8FF" fill-opacity=".12" stroke="#63A8FF" stroke-opacity=".38"/>
  <circle cx="303" cy="381" r="7" fill="#63A8FF"/><text x="321" y="387" fill="#CBE5FF">Windows · Coming soon</text>
</g>
<g transform="translate(884 38)" filter="url(#shadow)">
  <rect width="278" height="404" rx="46" fill="#07111F" stroke="#2B496B" stroke-width="3"/>
  <rect x="20" y="28" width="238" height="220" rx="30" fill="#0D1B2D" stroke="#31547C"/>
  <circle cx="139" cy="137" r="61" fill="#63A8FF"/><circle cx="139" cy="137" r="75" fill="none" stroke="#63A8FF" stroke-opacity=".16" stroke-width="12"/>
  <path d="M139 105v35m-24-21a35 35 0 1 0 48 0" fill="none" stroke="#07111F" stroke-width="10" stroke-linecap="round"/>
  <circle cx="85" cy="64" r="6" fill="#62E6B5"/><text x="99" y="70" fill="#62E6B5" font-family="Inter,Segoe UI,Arial,sans-serif" font-size="13" font-weight="700">CONNECTED</text>
  <rect x="20" y="266" width="238" height="55" rx="17" fill="#0D1B2D"/><circle cx="49" cy="294" r="10" fill="#62E6B5"/>
  <rect x="72" y="284" width="112" height="8" rx="4" fill="#E7EDF5"/><rect x="72" y="301" width="76" height="6" rx="3" fill="#526A86"/>
  <rect x="198" y="282" width="42" height="22" rx="11" fill="#62E6B5" fill-opacity=".16"/>
  <rect x="20" y="338" width="108" height="40" rx="14" fill="#10243A"/><rect x="150" y="338" width="108" height="40" rx="14" fill="#10243A"/>
</g>
</svg>