<svg xmlns="http://www.w3.org/2000/svg" viewBox="0 0 1280 480" role="img" aria-labelledby="title desc">
<title id="title">MezaVPN</title>
<desc id="desc">A dependable VPN experience for Android</desc>
<defs>
  <linearGradient id="panel" x1="0" y1="0" x2="1280" y2="480" gradientUnits="userSpaceOnUse">
    <stop stop-color="#0B1A2C"/>
    <stop offset=".55" stop-color="#0A1626"/>
    <stop offset="1" stop-color="#07111F"/>
  </linearGradient>
  <linearGradient id="brand" x1="78" y1="88" x2="260" y2="286" gradientUnits="userSpaceOnUse">
    <stop stop-color="#62E6B5"/>
    <stop offset="1" stop-color="#63A8FF"/>
  </linearGradient>
  <radialGradient id="glow">
    <stop stop-color="#63A8FF" stop-opacity=".32"/>
    <stop offset="1" stop-color="#63A8FF" stop-opacity="0"/>
  </radialGradient>
</defs>
<rect width="1280" height="480" rx="32" fill="url(#panel)"/>
<circle cx="1060" cy="52" r="330" fill="url(#glow)"/>
<circle cx="106" cy="460" r="260" fill="url(#glow)" opacity=".45"/>
<rect x="72" y="72" width="128" height="128" rx="38" fill="url(#brand)"/>
<path d="M136 103c21 14 40 17 56 19v36c0 29-19 49-56 61-37-12-56-32-56-61v-36c16-2 35-5 56-19Z" fill="#07111F"/>
<text x="232" y="128" fill="#F6F9FC" font-family="Inter,Segoe UI,Arial,sans-serif" font-size="54" font-weight="700">MezaVPN</text>
<text x="232" y="177" fill="#93A7C0" font-family="Inter,Segoe UI,Arial,sans-serif" font-size="24">Private. Fast. Effortless.</text>
<text x="74" y="283" fill="#F6F9FC" font-family="Inter,Segoe UI,Arial,sans-serif" font-size="31" font-weight="600">A dependable VPN experience for Android.</text>
<text x="74" y="329" fill="#93A7C0" font-family="Inter,Segoe UI,Arial,sans-serif" font-size="20">Verified connections · Smart Failover · Real delay testing</text>
<g font-family="Inter,Segoe UI,Arial,sans-serif" font-size="17" font-weight="600">
  <rect x="74" y="374" width="150" height="48" rx="24" fill="#62E6B5" fill-opacity=".13" stroke="#62E6B5" stroke-opacity=".38"/>
  <circle cx="101" cy="398" r="7" fill="#62E6B5"/><text x="118" y="404" fill="#BDF7E1">Android 7+</text>
  <rect x="242" y="374" width="172" height="48" rx="24" fill="#63A8FF" fill-opacity=".12" stroke="#63A8FF" stroke-opacity=".35"/>
  <circle cx="269" cy="398" r="7" fill="#63A8FF"/><text x="286" y="404" fill="#C8E2FF">One-tap control</text>
</g>
<g transform="translate(875 43)">
  <rect width="286" height="394" rx="46" fill="#07111F" stroke="#27415F" stroke-width="3"/>
  <rect x="23" y="30" width="240" height="206" rx="30" fill="#0D1B2D" stroke="#31547C"/>
  <circle cx="143" cy="130" r="59" fill="#63A8FF"/>
  <path d="M143 99v34m-23-21a34 34 0 1 0 46 0" fill="none" stroke="#07111F" stroke-width="10" stroke-linecap="round"/>
  <circle cx="96" cy="65" r="6" fill="#62E6B5"/>
  <text x="110" y="71" fill="#62E6B5" font-family="Inter,Segoe UI,Arial,sans-serif" font-size="13" font-weight="700">CONNECTED</text>
  <rect x="23" y="254" width="240" height="54" rx="17" fill="#0D1B2D"/>
  <circle cx="52" cy="281" r="10" fill="#62E6B5"/>
  <rect x="75" y="272" width="113" height="8" rx="4" fill="#E7EDF5"/>
  <rect x="75" y="289" width="76" height="6" rx="3" fill="#526A86"/>
  <rect x="200" y="270" width="44" height="22" rx="11" fill="#62E6B5" fill-opacity=".16"/>
  <rect x="23" y="325" width="112" height="42" rx="14" fill="#10243A"/>
  <rect x="151" y="325" width="112" height="42" rx="14" fill="#10243A"/>
</g>
</svg>