<svg xmlns="http://www.w3.org/2000/svg" viewBox="0 0 512 512" role="img" aria-labelledby="title">
<title id="title">MezaVPN</title>
<defs>
  <linearGradient id="bg" x1="56" y1="48" x2="456" y2="464" gradientUnits="userSpaceOnUse">
    <stop stop-color="#62E6B5"/>
    <stop offset="1" stop-color="#63A8FF"/>
  </linearGradient>
  <filter id="shadow" x="-20%" y="-20%" width="140%" height="150%">
    <feDropShadow dx="0" dy="18" stdDeviation="18" flood-color="#07111F" flood-opacity=".32"/>
  </filter>
</defs>
<rect x="28" y="28" width="456" height="456" rx="132" fill="url(#bg)" filter="url(#shadow)"/>
<path d="M256 118c47 32 91 39 126 43v91c0 72-44 122-126 151-82-29-126-79-126-151v-91c35-4 79-11 126-43Z" fill="#07111F"/>
<path d="M256 167c28 17 52 23 79 28v56c0 46-25 77-79 100-54-23-79-54-79-100v-56c27-5 51-11 79-28Z" fill="#0D1B2D"/>
</svg>